HIERARCHY
ROOT Hips
{
  OFFSET -17.8222 7.7 127.125
  CHANNELS 6 Xposition Yposition Zposition Zrotation Xrotation Yrotation
  JOINT Spine
  {
    OFFSET 0.0 0.0 0.0
    CHANNELS 3 Zrotation Xrotation Yrotation
    JOINT Spine1
    {
      OFFSET 38.68 0.0 0.0
      CHANNELS 3 Zrotation Xrotation Yrotation
      JOINT Neck
      {
        OFFSET 0.0 0.0 0.0
        CHANNELS 3 Zrotation Xrotation Yrotation
        JOINT Head
        {
          OFFSET 0.0 0.0 0.0
          CHANNELS 3 Zrotation Xrotation Yrotation
          End Site
          {
            OFFSET 17 0 0
          }
        }
      }
      JOINT LeftShoulder
      {
        OFFSET 0.0 0.0 14.2
        CHANNELS 3 Zrotation Xrotation Yrotation
        JOINT LeftArm
        {
          OFFSET 0.0 0.0 0.0
          CHANNELS 3 Zrotation Xrotation Yrotation
          JOINT LeftForeArm
          {
            OFFSET 21.3 0.0 0.0
            CHANNELS 3 Zrotation Xrotation Yrotation
            JOINT LeftHand
            {
              OFFSET 21.3 0.0 0.0
              CHANNELS 3 Zrotation Xrotation Yrotation
              End Site
              {
                OFFSET 7.2 0 0
              }
            }
          }
        }
      }
      JOINT RightShoulder
      {
        OFFSET 0.0 0.0 -14.2
        CHANNELS 3 Zrotation Xrotation Yrotation
        JOINT RightArm
        {
          OFFSET 0.0 0.0 0.0
          CHANNELS 3 Zrotation Xrotation Yrotation
          JOINT RightForeArm
          {
            OFFSET 21.3 0.0 0.0
            CHANNELS 3 Zrotation Xrotation Yrotation
            JOINT RightHand
            {
              OFFSET 21.3 0.0 0.0
              CHANNELS 3 Zrotation Xrotation Yrotation
              End Site
              {
                OFFSET 7.2 0 0
              }
            }
          }
        }
      }
    }
  }
  JOINT LeftUpLeg
  {
    OFFSET 0.0 0.0 14.2
    CHANNELS 3 Zrotation Xrotation Yrotation
    JOINT LeftLeg
    {
      OFFSET 21.3 0.0 0.0
      CHANNELS 3 Zrotation Xrotation Yrotation
      JOINT LeftFoot
      {
        OFFSET 21.3 0.0 0.0
        CHANNELS 3 Zrotation Xrotation Yrotation
        End Site
        {
          OFFSET 0 -10.8 0
        }
      }
    }
  }
  JOINT RightUpLeg
  {
    OFFSET 0.0 0.0 -14.2
    CHANNELS 3 Zrotation Xrotation Yrotation
    JOINT RightLeg
    {
      OFFSET 21.3 0.0 0.0
      CHANNELS 3 Zrotation Xrotation Yrotation
      JOINT RightFoot
      {
        OFFSET 21.3 0.0 0.0
        CHANNELS 3 Zrotation Xrotation Yrotation
        End Site
        {
          OFFSET 0 -10.8 0
        }
      }
    }
  }
  JOINT Tail
  {
    OFFSET 0.0 0.0 0.0
    CHANNELS 3 Zrotation Xrotation Yrotation
    JOINT Tail1
    {
      OFFSET 0.0 0.0 0.0
      CHANNELS 3 Zrotation Xrotation Yrotation
      End Site
      {
        OFFSET 12 0 0
      }
    }
  }
}
MOTION
Frames:	17
Frame Time:	0.0166667
-25.0985 45.6275 39.6167 12.6745 7.69285 -110.473 -146.894 -0.230874 -16.7199 -36.6823 -8.26525 27.0178 -32.3725 -7.4291 25.7072 -126.992 52.1227 114.942 -110.113 -35.5169 -139.491 130.351 -51.6115 -121.925 -54.8439 15.11 -5.95964 -0.0961638 -0.0995174 -9.0559 79.0304 -22.9178 39.6927 37.3329 -62.5082 -43.2237 -62.345 -19.1194 1.25426 -2.04678 0.957199 0.00609456 -133.364 2.43742 -23.0917 98.6018 13.6887 2.4443 32.3236 -2.01209 -4.16143 -124.75 -3.67741 -1.34896 75.6042 -24.4295 -3.08327 48.7178 3.95442 2.16886 -80.6812 -57.4769 -60.2008 55.7895 84.0524 -62.8997 
-25.6584 45.5847 39.5848 13.5377 7.81737 -111.456 -146.889 -0.503973 -17.8426 -36.011 -8.57379 28.2644 -30.5477 -8.92584 28.2981 -127.102 50.0715 115.677 -110.026 -35.4911 -139.308 130.764 -51.1178 -121.542 -54.1127 14.2762 -6.13495 0.138545 0.17387 -10.7305 79.1919 -22.6999 39.7151 36.9863 -61.4425 -43.4438 -62.1602 -18.9311 1.10431 -2.48938 1.01995 -0.654471 -132.695 3.73526 -23.1259 99.0042 10.4267 1.82819 30.4719 -1.61386 -3.51352 -124.554 -3.71626 -1.20735 75.4009 -25.0445 -3.1333 49.1724 4.01023 2.18015 -87.3035 -55.8698 -68.5382 106.518 83.2333 -115.788 
-26.2135 45.5513 39.5 14.3613 7.45666 -112.259 -147.411 -0.480748 -18.6776 -35.1439 -8.66711 29.4143 -29.5671 -9.6355 30.2617 -126.706 48.1866 116.59 -110.034 -35.6335 -139.044 129.83 -50.6713 -121.949 -53.5639 15.6005 -6.54021 -0.486017 0.00440012 -9.60283 79.2273 -22.5557 39.3755 36.1125 -61.1523 -42.7768 -62.4896 -17.9372 0.250244 -2.89093 1.00956 -0.579162 -132.036 4.92973 -24.0364 97.2947 7.53057 1.94798 30.5856 -1.26248 -3.00975 -124.542 -3.80053 -1.89219 75.0432 -24.491 -2.78189 49.1749 3.8062 1.95935 -91.7418 -54.6253 -74.1071 121.278 80.3431 -132.707 
-26.7966 45.5268 39.2936 14.7739 6.84438 -112.697 -148.136 -0.36473 -19.1464 -34.2969 -8.96956 30.7632 -28.8719 -9.93187 32.0499 -126.298 47.2946 117.688 -110.059 -35.8581 -138.663 129.869 -50.709 -121.703 -53.1484 15.9278 -6.69133 -0.928136 0.194397 -10.7563 79.4138 -22.3508 39.5675 36.4404 -59.7752 -43.0939 -62.5215 -18.2455 0.375383 -3.65815 1.23571 -1.88368 -130.991 5.99709 -24.7626 93.5371 5.74895 2.51672 34.3145 -1.01105 -2.83881 -125.069 -4.25947 -2.81897 74.9776 -23.3949 -2.05356 49.728 3.50844 1.56411 -93.4669 -54.1645 -76.2455 120.261 78.3879 -133.579 
-27.4167 45.5057 39.0436 14.8891 6.04163 -112.805 -149.264 -0.171117 -19.332 -32.9874 -9.45289 32.5507 -28.3476 -9.61651 33.5515 -126.05 47.2409 119.323 -110.055 -36.2609 -137.863 130.375 -50.5764 -120.756 -52.2562 15.5938 -6.97355 -1.08784 0.466077 -12.3247 79.2595 -22.5054 39.355 35.8788 -58.6474 -43.5486 -62.6954 -17.8178 0.225584 -4.27494 1.48774 -3.33942 -128.824 6.701 -25.1704 87.7349 6.08497 3.26382 38.3064 -1.05474 -3.12608 -125.64 -4.45924 -2.93571 74.501 -22.0524 -1.8383 50.148 3.152 1.12566 -92.9864 -54.5648 -75.551 112.755 77.4579 -127.539 
-28.0781 45.4647 38.8445 14.9125 5.50368 -112.732 -149.7 0.106573 -18.9691 -32.4553 -9.99256 33.9818 -27.8151 -9.36193 34.5061 -125.573 47.268 121.435 -109.785 -36.1267 -137.398 129.951 -50.7694 -121.275 -51.9991 16.3265 -7.34035 -0.926755 0.492578 -12.4734 79.2808 -22.4311 39.1927 37.0016 -57.3536 -42.4713 -64.1241 -17.5384 -0.22118 -4.51292 2.04243 -6.11673 -126.571 6.72174 -25.8311 85.6753 10.6565 4.17532 34.6672 -1.71949 -4.11533 -126.263 -4.64757 -2.71136 74.2918 -20.8659 -1.74027 50.7615 2.87291 0.758289 -90.3177 -55.7865 -72.3968 101.185 77.1154 -116.745 
-28.7612 45.4113 38.6543 15.3767 5.16968 -112.806 -149.592 0.477073 -18.791 -32.203 -10.3967 35.4977 -26.8593 -9.39955 35.6458 -125.461 46.5458 122.768 -109.662 -36.0617 -137.192 130.563 -51.3831 -121.58 -51.8409 16.148 -7.36038 -0.222334 0.684019 -13.7981 79.2187 -22.4427 38.9262 37.7484 -56.2597 -40.6844 -66.4228 -15.6016 -1.37703 -2.88729 2.33855 -8.39601 -126.274 6.28978 -26.5103 86.6723 10.5005 4.78971 33.2252 -1.757 -4.21285 -126.82 -4.45192 -2.97734 74.4644 -18.9551 -1.53662 51.7694 2.61534 0.360577 -86.8833 -57.8113 -68.2818 87.7098 76.8618 -103.171 
-29.467 45.3682 38.3984 15.7056 4.86201 -112.921 -149.139 0.838286 -18.5765 -32.2258 -10.8898 37.0546 -25.9494 -9.58368 36.31 -125.29 45.3522 124.323 -109.669 -36.1824 -136.975 129.763 -52.0858 -122.11 -52.3502 17.3009 -7.88609 0.102387 0.769315 -14.4344 79.0433 -22.5999 38.6291 41.226 -53.4807 -38.1543 -69.5329 -14.9173 -1.94835 -0.332281 2.92289 -13.6873 -125.496 5.70641 -26.2938 85.0347 10.9758 5.44638 32.1848 -1.89834 -4.43084 -127.19 -4.81948 -3.24436 74.4956 -18.1327 -1.1657 52.4895 2.42614 0.0857842 -81.5785 -60.2721 -61.8405 70.7571 76.6123 -85.4895 
-30.11 45.3765 38.1772 16.0818 4.40376 -113.077 -148.838 1.29091 -18.5109 -32.0433 -11.2668 38.772 -25.327 -9.78271 36.5549 -124.983 44.615 126.329 -109.576 -36.1608 -136.765 128.607 -52.1284 -122.754 -52.7527 18.17 -8.2893 -0.459086 1.0982 -16.057 78.8339 -22.7575 38.1763 46.0057 -49.3577 -35.7954 -73.4691 -13.9693 -2.21174 3.03552 3.04687 -19.1663 -126.04 4.81132 -26.1914 84.9078 10.0662 5.86566 32.0569 -1.81882 -4.28672 -127.648 -5.07009 -3.66404 74.2563 -16.9482 -0.807706 53.422 2.19132 -0.243676 -75.1744 -62.7018 -53.9183 51.4092 75.5499 -64.7645 
-30.7549 45.457 37.932 16.4779 3.68811 -113.27 -148.598 1.93397 -18.5582 -32.0235 -11.5135 40.5403 -24.5472 -9.79644 37.4608 -124.502 44.6875 126.124 -109.51 -36.0517 -136.798 127.164 -51.7915 -123.534 -52.9888 18.9035 -8.95588 -0.431991 1.216 -16.54 78.7266 -22.7862 37.7637 52.1978 -43.3226 -34.5696 -77.9651 -13.1135 -2.40762 6.15163 2.79743 -24.197 -126.29 4.33319 -25.8213 84.2329 9.58072 6.04661 32.3662 -1.79285 -4.25884 -128.206 -5.46984 -3.71074 73.6421 -17.5639 -0.674671 54.5157 2.19053 -0.313568 -66.1768 -64.701 -43.2535 31.4261 72.2588 -43.1564 
-31.3788 45.4958 37.6398 16.9168 2.64708 -113.497 -148.79 2.782 -18.5381 -31.8137 -11.5302 42.2244 -23.8655 -9.73887 38.1603 -124.064 44.9586 126.353 -109.52 -36.1047 -136.722 126.459 -52.1851 -124.257 -53.7816 18.439 -8.94922 -0.188084 1.51326 -18.5524 78.5479 -22.9634 37.5446 57.9063 -37.8491 -34.5027 -82.6974 -11.9255 -3.26964 8.74017 2.38434 -28.2826 -126.623 4.23336 -25.813 83.6155 9.45497 6.34983 32.2718 -1.80045 -4.29564 -128.993 -5.41459 -3.43821 72.765 -17.4835 -0.929187 55.7879 2.03746 -0.530805 -55.9732 -66.0322 -30.9361 17.408 66.6618 -27.2544 
-31.9699 45.4995 37.3289 17.4112 1.56099 -113.783 -149.073 3.82422 -18.7197 -31.7048 -11.4594 44.1396 -23.7201 -9.55559 38.1578 -124.41 44.8123 126.839 -109.581 -36.1746 -136.753 125.042 -51.9113 -124.534 -54.4079 18.1839 -9.43278 0.0288335 1.76209 -20.1308 78.3049 -23.3512 37.7651 63.2653 -33.586 -35.3917 -87.3143 -7.31502 -4.43102 12.6056 0.996296 -27.8728 -126.881 4.16668 -26.1972 83.0174 9.78014 6.73241 32.0577 -1.85047 -4.37796 -129.866 -5.54654 -3.73456 72.387 -17.477 -0.816612 56.2819 1.93002 -0.653144 -43.9433 -66.2396 -16.6967 9.21786 58.9889 -17.096 
-32.4995 45.5109 37.0504 17.8569 0.53702 -114.219 -149.72 4.81309 -19.0408 -31.0468 -11.285 46.2317 -23.651 -9.47135 38.018 -125.172 43.8423 127.628 -109.504 -36.1363 -136.616 123.648 -50.9566 -124.739 -54.0945 18.7756 -9.99205 -1.06499 2.00282 -20.6053 78.0539 -23.8228 38.2229 68.6077 -29.6694 -35.5268 -91.5704 -1.3725 -6.71628 16.3497 -0.241191 -27.3373 -127.178 3.84555 -26.9403 82.4237 10.0732 7.54197 31.7313 -1.93317 -4.52413 -130.654 -5.01017 -3.52461 71.8335 -16.4167 -1.25012 57.0568 1.6979 -0.900806 -32.3809 -65.2263 -2.95542 5.0249 50.6894 -10.6569 
-32.9579 45.5474 36.829 18.1549 -0.116014 -114.685 -150.377 5.59904 -19.2298 -29.9752 -11.0866 48.2298 -23.5646 -9.3974 38.0538 -126.087 42.8707 128.693 -109.736 -36.1588 -137.203 121.462 -50.0328 -126.38 -54.2036 19.2207 -10.385 -1.32772 1.98517 -20.3239 78.0583 -23.9479 38.6593 73.9929 -25.3241 -35.6524 -94.7216 5.84608 -9.59371 19.7249 -1.29621 -25.7076 -127.152 3.45459 -27.5462 81.8248 10.264 8.35287 31.8249 -2.01309 -4.68445 -130.979 -5.17454 -3.43077 71.4287 -17.0366 -1.27135 57.2093 1.74396 -0.849666 -21.515 -62.7367 10.0292 3.26208 42.2604 -6.61033 
-33.385 45.559 36.6616 18.4895 -0.630857 -115.203 -151.162 6.31026 -19.2121 -28.676 -10.7863 50.0043 -23.4258 -9.15479 38.175 -126.785 42.2061 130.027 -109.619 -36.2879 -136.636 121.229 -49.0142 -126.019 -53.1629 18.1107 -10.6958 -1.43156 2.29439 -21.7988 78.1594 -23.815 38.6736 77.5265 -21.185 -34.0202 -96.1949 11.7294 -12.509 21.2206 -1.66254 -24.1851 -126.849 3.21705 -27.7783 81.2162 10.6683 8.72886 31.1823 -2.10058 -4.82364 -131.153 -4.99243 -3.42789 71.2957 -16.7213 -1.35 56.4391 1.73442 -0.812085 -12.8367 -59.3688 20.8946 2.89756 34.5409 -3.95158 
-33.775 45.5482 36.5302 18.8469 -0.967864 -115.682 -151.826 6.90082 -19.0565 -27.345 -10.4893 51.6117 -23.1623 -8.72924 38.7407 -127.643 42.2345 130.836 -109.676 -36.5103 -136.363 120.066 -48.37 -126.798 -52.7358 17.7791 -11.0573 -1.32194 2.32347 -21.9398 78.4944 -23.4115 38.8502 79.5867 -17.3614 -32.9825 -96.2463 19.0501 -15.2643 23.5692 -2.24189 -20.7656 -126.755 3.0249 -27.8666 81.1097 10.6111 8.93381 31.0779 -2.11013 -4.84144 -131.104 -4.97557 -3.87226 71.3454 -15.9696 -1.10455 55.684 1.62966 -0.867396 -6.26688 -55.3979 29.6613 3.32246 27.7357 -1.93967 
-34.1074 45.5431 36.4642 18.9919 -0.960405 -116.163 -152.396 7.27095 -18.8889 -25.696 -10.2608 53.3709 -22.9058 -8.41873 39.3745 -128.055 42.4643 131.659 -109.726 -36.8382 -135.875 118.805 -47.5785 -127.485 -52.1281 17.8144 -11.5932 -1.08052 2.10422 -20.6805 78.6811 -23.1584 38.8563 80.6884 -13.6049 -31.7717 -95.9149 22.3749 -17.4091 22.1422 -1.86144 -18.4077 -126.626 2.63419 -27.7039 81.1953 10.3626 9.06471 31.09 -2.11102 -4.84024 -131.012 -4.67979 -4.11539 72.0205 -13.9119 -1.0773 55.0193 1.32082 -1.12211 -1.21498 -50.8175 36.939 4.08917 21.9157 -0.217138 
